<svg width="79" height="79" viewBox="0 0 79 79" fill="none" xmlns="http://www.w3.org/2000/svg">
<circle cx="39.5" cy="39.5" r="39.5" fill="#118EEA"/>
<path d="M38.2818 15.7766C38.5043 15.5974 38.8593 15.3465 39.0878 15.227C39.3104 15.1016 39.4969 15 39.5089 15C39.5149 15 39.6353 15.0597 39.7796 15.1255C39.918 15.1971 40.1526 15.3405 40.303 15.4421C40.4534 15.5436 40.7481 15.8005 40.9587 16.0156C41.1692 16.2306 41.5001 16.607 41.6866 16.8519C41.873 17.0969 42.258 17.6883 42.5408 18.1662C42.8235 18.6442 43.4431 19.7732 43.9123 20.6753C44.3875 21.5774 44.977 22.6706 45.2237 23.0948C45.4703 23.519 45.8373 24.1164 46.0358 24.4091C46.2403 24.7018 46.5591 25.1499 46.7576 25.3948C46.9501 25.6397 47.3471 26.0818 47.6359 26.3745C47.9186 26.6673 48.3457 27.0616 48.5743 27.2408C48.8089 27.426 49.1578 27.6769 49.3563 27.7964C49.7173 28.0174 49.7173 28.0174 50.409 28.0234C50.788 28.0234 51.3836 27.9935 51.7325 27.9636C52.0814 27.9278 52.6228 27.8442 52.9356 27.7784C53.2484 27.7187 53.7657 27.5813 54.0785 27.4797C54.3913 27.3782 54.9207 27.1751 55.2515 27.0257C55.5824 26.8823 56.1659 26.5836 56.5449 26.3686C56.9238 26.1475 57.8322 25.5919 58.5601 25.1319C59.2879 24.6719 60.2203 24.1164 60.6354 23.8894C61.0505 23.6683 61.3934 23.507 61.4054 23.5429C61.4114 23.5727 61.3031 23.7699 61.1648 23.979C61.0264 24.1821 60.7497 24.5525 60.5512 24.7974C60.3527 25.0423 59.9196 25.5561 59.5947 25.9325C59.2639 26.3088 58.4939 27.1571 57.8803 27.8143C57.2607 28.4714 55.0951 30.6639 53.0559 32.6891C51.0226 34.7083 47.4494 38.1912 45.1154 40.4255C42.7814 42.6657 40.1285 45.2405 39.2202 46.1486C38.3118 47.0626 36.7538 48.5919 35.7613 49.5478C34.7687 50.5036 33.5536 51.6327 33.0543 52.0629C32.561 52.487 31.773 53.1382 31.3098 53.5026C30.8466 53.867 30.0886 54.4345 29.6255 54.7631C29.1623 55.0917 28.4885 55.5517 28.1216 55.7847C27.7606 56.0117 27.2192 56.3462 26.9185 56.5195C26.6237 56.6927 26.0282 57.0153 25.5951 57.2423C25.168 57.4634 24.5002 57.786 24.1213 57.9592C23.7423 58.1265 23.0926 58.4013 22.6775 58.5686C22.2625 58.7299 21.4804 59.0107 20.933 59.1899C20.3856 59.3691 19.5374 59.62 19.0381 59.7514C18.5449 59.8769 17.7448 60.0621 17.2636 60.1577C16.7823 60.2533 16.0244 60.3907 15.5792 60.4564C15.1341 60.5221 14.3882 60.6177 13.925 60.6655C13.4618 60.7133 12.8422 60.773 12 60.8387L12.1564 60.5758C12.2466 60.4325 16.7162 52.5826 22.088 43.1377C27.4659 33.6927 32.0377 25.6397 32.2542 25.2455C32.4708 24.8512 32.9941 23.8714 33.4152 23.0649C33.8423 22.2584 34.4318 21.1712 34.7266 20.6455C35.0214 20.1197 35.4785 19.3551 35.7312 18.9429C35.9899 18.5306 36.4109 17.9153 36.6696 17.5688C36.9343 17.2223 37.3133 16.7504 37.5178 16.5234C37.7223 16.2904 38.0652 15.9558 38.2818 15.7766Z" fill="white"/>
<path d="M59.6128 35.9688C59.9918 35.6821 60.5632 35.2818 60.876 35.0787C61.1888 34.8756 61.4535 34.7322 61.4595 34.7561C61.4716 34.786 61.3092 35.2042 61.0986 35.7C60.882 36.1899 60.461 37.1218 60.1542 37.761C59.8474 38.4003 59.4985 39.153 59.3722 39.4338C59.2458 39.7145 59.0473 40.2223 58.933 40.5688C58.8127 40.9153 58.6683 41.3992 58.6202 41.6442C58.5661 41.8891 58.5059 42.4029 58.4879 42.7792C58.4638 43.1914 58.4819 43.6932 58.524 44.0338C58.5661 44.3444 58.6683 44.8582 58.7526 45.1688C58.8368 45.4795 58.9571 45.8857 59.0233 46.0649C59.0894 46.2442 59.2759 46.6922 59.4383 47.0507C59.5947 47.4091 59.8775 47.9886 60.07 48.3351C60.2564 48.6816 60.5993 49.2849 60.8339 49.6792C61.0685 50.0735 61.7904 51.2862 62.4401 52.3675C63.0897 53.4488 63.8958 54.8109 64.2267 55.3844C64.5575 55.9579 65.0147 56.7823 65.2493 57.2065C65.4839 57.6307 65.8148 58.2639 65.9892 58.6104C66.1637 58.9569 66.4644 59.6021 66.663 60.0442C66.8555 60.4862 67.0058 60.8566 66.9998 60.8626C66.988 60.8744 66.6252 60.9036 66.1883 60.9388L66.1697 60.9403C65.7245 60.9701 64.738 60.994 63.974 61C63.2101 61 62.1333 60.9582 61.5678 60.9104C61.0084 60.8626 60.1782 60.767 59.7331 60.7013C59.2879 60.6296 58.53 60.4803 58.0487 60.3668C57.5675 60.2473 56.8517 60.0322 56.4546 59.8829C56.0576 59.7335 55.5162 59.5005 55.2515 59.3691C54.9868 59.2377 54.5958 59.0226 54.3793 58.8912C54.1627 58.7597 53.7717 58.4849 53.507 58.2818C53.2424 58.0787 52.8032 57.6725 52.5265 57.3797C52.2498 57.087 51.8768 56.633 51.7024 56.3701C51.5219 56.1073 51.2452 55.6114 51.0768 55.2649C50.9143 54.9184 50.6918 54.3808 50.5955 54.0701C50.4933 53.7595 50.3609 53.2338 50.2947 52.9052C50.2286 52.5766 50.1444 52.027 50.1083 51.6805C50.0782 51.334 50.0481 50.6649 50.0481 50.187C50.0481 49.7091 50.0902 49.052 50.1383 48.7234C50.1925 48.3948 50.2887 47.9229 50.3549 47.6779C50.4271 47.433 50.5895 46.967 50.7158 46.6444C50.8482 46.3278 51.0948 45.7782 51.2753 45.4197C51.4497 45.0673 51.7505 44.5236 51.943 44.213C52.1355 43.9023 52.4363 43.4304 52.6228 43.1675C52.8092 42.9047 53.1882 42.3909 53.4709 42.0325C53.7477 41.674 54.2108 41.1065 54.4936 40.7779C54.7703 40.4494 55.5583 39.6249 56.2381 38.9499C56.9178 38.2748 57.8021 37.4444 58.1991 37.1099C58.5962 36.7694 59.2338 36.2616 59.6128 35.9688Z" fill="white"/>
</svg>
