<svg width="213" height="60" viewBox="0 0 213 60" fill="none" xmlns="http://www.w3.org/2000/svg">
<path d="M60.528 50.1948L72.864 14.4348H81.312L93.648 50.1948H86.544L84 42.5148H70.176L67.584 50.1948H60.528ZM72.048 36.7548H82.128L76.176 18.9468H78L72.048 36.7548ZM107.551 50.4828C104.607 50.4828 102.319 49.6828 100.687 48.0828C99.0868 46.4508 98.2868 44.1628 98.2868 41.2188V29.6988H93.7748V24.0828H94.2548C95.5348 24.0828 96.5268 23.7468 97.2308 23.0748C97.9348 22.4028 98.2868 21.4268 98.2868 20.1468V18.1308H104.575V24.0828H110.575V29.6988H104.575V40.8828C104.575 41.7468 104.719 42.4828 105.007 43.0908C105.327 43.6988 105.807 44.1628 106.447 44.4828C107.119 44.8028 107.967 44.9628 108.991 44.9628C109.215 44.9628 109.471 44.9468 109.759 44.9148C110.079 44.8828 110.383 44.8508 110.671 44.8188V50.1948C110.223 50.2588 109.711 50.3228 109.135 50.3868C108.559 50.4508 108.031 50.4828 107.551 50.4828ZM115.475 50.1948V13.8588H121.763V50.1948H115.475ZM139.953 50.7708C137.265 50.7708 134.913 50.1628 132.897 48.9468C130.881 47.7308 129.313 46.0828 128.193 44.0028C127.073 41.9228 126.513 39.6188 126.513 37.0908C126.513 34.4668 127.073 32.1468 128.193 30.1308C129.345 28.0828 130.897 26.4668 132.849 25.2828C134.833 24.0988 137.041 23.5068 139.473 23.5068C141.521 23.5068 143.313 23.8428 144.849 24.5148C146.417 25.1868 147.745 26.1148 148.833 27.2988C149.921 28.4828 150.753 29.8428 151.329 31.3788C151.905 32.8828 152.193 34.5148 152.193 36.2748C152.193 36.7228 152.161 37.1868 152.097 37.6668C152.065 38.1468 151.985 38.5628 151.857 38.9148H131.697V34.1148H148.305L145.329 36.3708C145.617 34.8988 145.537 33.5868 145.089 32.4348C144.673 31.2828 143.969 30.3708 142.977 29.6988C142.017 29.0268 140.849 28.6908 139.473 28.6908C138.161 28.6908 136.993 29.0268 135.969 29.6988C134.945 30.3388 134.161 31.2988 133.617 32.5788C133.105 33.8268 132.913 35.3468 133.041 37.1388C132.913 38.7388 133.121 40.1628 133.665 41.4108C134.241 42.6268 135.073 43.5708 136.161 44.2428C137.281 44.9148 138.561 45.2508 140.001 45.2508C141.441 45.2508 142.657 44.9468 143.649 44.3388C144.673 43.7308 145.473 42.9148 146.049 41.8908L151.137 44.3868C150.625 45.6348 149.825 46.7388 148.737 47.6988C147.649 48.6588 146.353 49.4108 144.849 49.9548C143.377 50.4988 141.745 50.7708 139.953 50.7708ZM168.863 50.4828C165.919 50.4828 163.631 49.6828 161.999 48.0828C160.399 46.4508 159.599 44.1628 159.599 41.2188V29.6988H155.087V24.0828H155.567C156.847 24.0828 157.839 23.7468 158.543 23.0748C159.247 22.4028 159.599 21.4268 159.599 20.1468V18.1308H165.887V24.0828H171.887V29.6988H165.887V40.8828C165.887 41.7468 166.031 42.4828 166.319 43.0908C166.639 43.6988 167.119 44.1628 167.759 44.4828C168.431 44.8028 169.279 44.9628 170.303 44.9628C170.527 44.9628 170.783 44.9468 171.071 44.9148C171.391 44.8828 171.695 44.8508 171.983 44.8188V50.1948C171.535 50.2588 171.023 50.3228 170.447 50.3868C169.871 50.4508 169.343 50.4828 168.863 50.4828ZM176.787 50.1948V24.0828H183.075V50.1948H176.787ZM176.787 21.1548V14.4348H183.075V21.1548H176.787ZM186.529 50.1948L195.649 37.0908L186.481 24.0828H193.873L201.025 34.6428H197.713L204.865 24.0828H212.209L203.089 37.0908L212.161 50.1948H204.817L197.761 39.6828H200.977L193.921 50.1948H186.529Z" fill="white"/>
<path d="M26.2818 7.95136C26.5043 7.77355 26.8593 7.52462 27.0878 7.40608C27.3104 7.28161 27.4969 7.18085 27.5089 7.18085C27.5149 7.18085 27.6353 7.24012 27.7796 7.30532C27.918 7.37644 28.1526 7.51869 28.303 7.61945C28.4534 7.72021 28.7481 7.97507 28.9587 8.18845C29.1692 8.40182 29.5001 8.77522 29.6866 9.01823C29.873 9.26124 30.258 9.84802 30.5408 10.3222C30.8235 10.7963 31.4431 11.9166 31.9123 12.8115C32.3875 13.7065 32.977 14.7912 33.2237 15.212C33.4703 15.6328 33.8373 16.2255 34.0358 16.516C34.2403 16.8064 34.5591 17.2509 34.7576 17.4939C34.9501 17.7369 35.3471 18.1755 35.6359 18.466C35.9186 18.7564 36.3457 19.1476 36.5743 19.3254C36.8089 19.5091 37.1578 19.7581 37.3563 19.8766C37.7173 20.0959 37.7173 20.0959 38.409 20.1018C38.788 20.1018 39.3836 20.0722 39.7325 20.0426C40.0814 20.007 40.6228 19.924 40.9356 19.8588C41.2484 19.7995 41.7657 19.6632 42.0785 19.5625C42.3913 19.4617 42.9207 19.2602 43.2515 19.112C43.5824 18.9698 44.1659 18.6734 44.5449 18.46C44.9238 18.2407 45.8322 17.6895 46.5601 17.2331C47.2879 16.7767 48.2203 16.2255 48.6354 16.0003C49.0505 15.781 49.3934 15.621 49.4054 15.6565C49.4114 15.6862 49.3031 15.8818 49.1648 16.0892C49.0264 16.2907 48.7497 16.6582 48.5512 16.9012C48.3527 17.1442 47.9196 17.6539 47.5947 18.0274C47.2639 18.4008 46.4939 19.2424 45.8803 19.8944C45.2607 20.5463 43.0951 22.7216 41.0559 24.7308C39.0226 26.7342 35.4494 30.1897 33.1154 32.4064C30.7814 34.629 28.1285 37.1836 27.2202 38.0845C26.3118 38.9913 24.7538 40.5087 23.7613 41.457C22.7687 42.4053 21.5536 43.5255 21.0543 43.9523C20.561 44.3731 19.773 45.0191 19.3098 45.3807C18.8466 45.7422 18.0886 46.3053 17.6255 46.6313C17.1623 46.9573 16.4885 47.4137 16.1216 47.6448C15.7606 47.8701 15.2192 48.202 14.9185 48.3739C14.6237 48.5457 14.0282 48.8658 13.5951 49.091C13.168 49.3103 12.5002 49.6304 12.1213 49.8023C11.7423 49.9682 11.0926 50.2409 10.6775 50.4068C10.2625 50.5669 9.48045 50.8454 8.93303 51.0233C8.38562 51.2011 7.53744 51.45 7.03815 51.5804C6.54488 51.7049 5.74481 51.8886 5.26357 51.9834C4.78233 52.0783 4.02438 52.2146 3.57923 52.2798C3.13408 52.345 2.38816 52.4398 1.92496 52.4872C1.46177 52.5346 0.842172 52.5939 0 52.6591L0.156403 52.3983C0.246636 52.2561 4.71616 44.4679 10.088 35.0973C15.4659 25.7266 20.0377 17.7369 20.2542 17.3457C20.4708 16.9546 20.9941 15.9825 21.4152 15.1824C21.8423 14.3822 22.4318 13.3035 22.7266 12.7819C23.0214 12.2603 23.4785 11.5017 23.7312 11.0927C23.9899 10.6837 24.4109 10.0732 24.6696 9.72948C24.9343 9.38571 25.3133 8.91747 25.5178 8.69225C25.7223 8.46109 26.0652 8.12918 26.2818 7.95136Z" fill="white"/>
<path d="M47.6128 27.9848C47.9918 27.7003 48.5632 27.3032 48.876 27.1017C49.1888 26.9001 49.4535 26.7579 49.4595 26.7816C49.4716 26.8112 49.3092 27.2261 49.0986 27.7181C48.882 28.2041 48.461 29.1287 48.1542 29.7629C47.8474 30.3971 47.4985 31.1439 47.3722 31.4225C47.2458 31.7011 47.0473 32.2049 46.933 32.5486C46.8127 32.8924 46.6683 33.3725 46.6202 33.6155C46.5661 33.8585 46.5059 34.3682 46.4879 34.7416C46.4638 35.1506 46.4819 35.6485 46.524 35.9863C46.5661 36.2945 46.6683 36.8043 46.7526 37.1125C46.8368 37.4207 46.9571 37.8237 47.0233 38.0015C47.0894 38.1793 47.2759 38.6239 47.4383 38.9795C47.5947 39.3351 47.8775 39.91 48.07 40.2538C48.2564 40.5976 48.5993 41.1962 48.8339 41.5874C49.0685 41.9786 49.7904 43.1818 50.4401 44.2546C51.0897 45.3274 51.8958 46.6787 52.2267 47.2477C52.5575 47.8167 53.0147 48.6346 53.2493 49.0555C53.4839 49.4763 53.8148 50.1046 53.9892 50.4483C54.1637 50.7921 54.4644 51.4322 54.663 51.8708C54.8555 52.3094 55.0058 52.6769 54.9998 52.6828C54.988 52.6945 54.6255 52.7235 54.1888 52.7583L54.1697 52.7599C53.7245 52.7895 52.738 52.8132 51.974 52.8191C51.2101 52.8191 50.1333 52.7777 49.5678 52.7302C49.0084 52.6828 48.1782 52.588 47.7331 52.5228C47.2879 52.4517 46.53 52.3035 46.0487 52.1909C45.5675 52.0723 44.8517 51.859 44.4546 51.7108C44.0576 51.5626 43.5162 51.3315 43.2515 51.2011C42.9868 51.0707 42.5958 50.8573 42.3793 50.7269C42.1627 50.5965 41.7717 50.3239 41.507 50.1223C41.2424 49.9208 40.8032 49.5178 40.5265 49.2274C40.2498 48.9369 39.8768 48.4865 39.7024 48.2257C39.5219 47.9649 39.2452 47.4729 39.0768 47.1292C38.9143 46.7854 38.6918 46.252 38.5955 45.9438C38.4933 45.6356 38.3609 45.114 38.2947 44.788C38.2286 44.462 38.1444 43.9167 38.1083 43.5729C38.0782 43.2292 38.0481 42.5653 38.0481 42.0912C38.0481 41.617 38.0902 40.965 38.1383 40.6391C38.1925 40.3131 38.2887 39.8448 38.3549 39.6018C38.4271 39.3588 38.5895 38.8965 38.7158 38.5764C38.8482 38.2623 39.0948 37.717 39.2753 37.3614C39.4497 37.0117 39.7505 36.4723 39.943 36.1641C40.1355 35.8559 40.4363 35.3877 40.6228 35.1269C40.8092 34.8661 41.1882 34.3564 41.4709 34.0008C41.7477 33.6451 42.2108 33.0821 42.4936 32.7561C42.7703 32.4301 43.5583 31.6122 44.2381 30.9424C44.9178 30.2726 45.8021 29.4488 46.1991 29.1169C46.5962 28.779 47.2338 28.2752 47.6128 27.9848Z" fill="white"/>
</svg>
